<svg id="shield-lock-fill" xmlns="http://www.w3.org/2000/svg" width="17.929" height="20" viewBox="0 0 17.929 20">
  <path id="Path_57" data-name="Path 57" d="M6.411,1.169a17.85,17.85,0,0,1,3.751-.7,17.866,17.866,0,0,1,3.751.7q1.861.5,3.7,1.087a1.939,1.939,0,0,1,1.337,1.579A16.159,16.159,0,0,1,15.79,16.322a14.923,14.923,0,0,1-3.224,3.066,9.256,9.256,0,0,1-1.343.781,2.773,2.773,0,0,1-1.061.3,2.773,2.773,0,0,1-1.061-.3,9.211,9.211,0,0,1-1.343-.781,14.922,14.922,0,0,1-3.223-3.066A16.147,16.147,0,0,1,1.378,3.834,1.939,1.939,0,0,1,2.715,2.255q1.835-.587,3.7-1.087Zm4.437,9.179a2,2,0,1,0-1.414-.014.667.667,0,0,0-.058.182l-.444,2.667a.667.667,0,0,0,.657.777H10.7a.667.667,0,0,0,.657-.779L10.9,10.513a.667.667,0,0,0-.05-.162Z" transform="translate(-1.197 -0.469)" fill="#818a91" fill-rule="evenodd"/>
</svg>
